# xmcd
#
# Track frame offsets:
#	150
#	23447
#	55029
#	82877
#	111850
#	135438
#	166560
#	186935
#	213291
#	252585
#
# Disc length: 3651 seconds
#
# Revision: 1
# Processed by: cddbd v1.5.2PL0 Copyright (c) Steve Scherf et al.
# Submitted via: audiograbber 1.83.01
#
DISCID=740e410a
DTITLE=12BBB - Key To Your Heart
DYEAR=2010
DGENRE=Blues
TTITLE0=Can You Hear Me Howlin'
TTITLE1=Love That Burns
TTITLE2=Let's Talk About It
TTITLE3=I'm Losing You
TTITLE4=Talk of The Town
TTITLE5=Key To You Heart
TTITLE6=Saturday Night
TTITLE7=Marian
TTITLE8=I Ain't Born In Chicago
TTITLE9=Big Legged Woman
EXTD=
EXTT0=
EXTT1=
EXTT2=
EXTT3=
EXTT4=
EXTT5=
EXTT6=
EXTT7=
EXTT8=
EXTT9=
PLAYORDER=
